<svg width="23" height="23" fill="none" xmlns="http://www.w3.org/2000/svg"><rect x=".5" y=".5" width="22" height="22" rx="11" fill="#FCFCFC"/><rect x=".5" y=".5" width="22" height="22" rx="11" stroke="#352D27"/><g clip-path="url(#Frame 127__a)"><path d="m4.799 11.688 3.434 5.5c.227.366.589.626 1.005.725.416.098.852.027 1.213-.198l7.25-4.526c.36-.225.616-.586.71-1.003a1.63 1.63 0 0 0-.21-1.22l-.858-1.376a.544.544 0 0 0-.335-.241.531.531 0 0 0-.404.065c-.24.15-.531.198-.809.132a1.087 1.087 0 0 1-.81-1.296c.063-.279.234-.519.474-.67a.531.531 0 0 0 .237-.333.544.544 0 0 0-.07-.407l-.859-1.375a1.63 1.63 0 0 0-1.005-.724 1.593 1.593 0 0 0-1.213.197L5.3 9.464a1.6 1.6 0 0 0-.71 1.003 1.63 1.63 0 0 0 .21 1.221Zm5.604-4.136.252.404a.543.543 0 0 0 .336.242.531.531 0 0 0 .64-.4.544.544 0 0 0-.07-.407l-.252-.405 1.813-1.131a.531.531 0 0 1 .404-.066c.139.033.26.12.335.241l.609.975c-.327.344-.529.79-.574 1.265a2.178 2.178 0 0 0 1.403 2.247c.447.167.935.181 1.388.04l.608.974a.544.544 0 0 1 .07.407.531.531 0 0 1-.237.334l-1.812 1.132-.253-.405a.544.544 0 0 0-.335-.24.531.531 0 0 0-.57.806l.252.405-4.532 2.829a.53.53 0 0 1-.404.065.544.544 0 0 1-.335-.241l-3.434-5.5a.544.544 0 0 1-.07-.408.531.531 0 0 1 .237-.334l4.531-2.829Zm1.228.958a.531.531 0 0 1 .404-.066c.139.033.259.12.335.241l.539.863c.075.121.1.268.07.407a.531.531 0 0 1-.642.4.544.544 0 0 1-.335-.241l-.538-.863a.544.544 0 0 1-.07-.407.531.531 0 0 1 .237-.334Zm1.346 2.157a.531.531 0 0 1 .405-.066c.138.033.259.12.335.241l.538.863a.543.543 0 0 1 .07.407.53.53 0 0 1-.641.4.544.544 0 0 1-.335-.241l-.539-.863a.543.543 0 0 1-.07-.407.531.531 0 0 1 .237-.334Z" fill="#352D27"/></g><defs><clipPath id="Frame 127__a"><path fill="#fff" transform="translate(4.5 4.5)" d="M0 0h14v14H0z"/></clipPath></defs></svg>