<svg width="32" height="31" fill="none" xmlns="http://www.w3.org/2000/svg"><g clip-path="url(#facebook__a)"><path d="M15.667 0C7.014 0 0 6.94 0 15.5c0 7.269 5.058 13.368 11.882 15.044V20.237h-3.23V15.5h3.23v-2.041c0-5.276 2.414-7.72 7.649-7.72.992 0 2.705.192 3.406.384v4.294c-.37-.039-1.012-.058-1.81-.058-2.569 0-3.561.963-3.561 3.466V15.5h5.117l-.88 4.737h-4.238v10.65c7.758-.927 13.769-7.462 13.769-15.387 0-8.56-7.015-15.5-15.667-15.5Z" fill="#fff"/></g><defs><clipPath id="facebook__a"><path fill="#fff" d="M0 0h31.333v31H0z"/></clipPath></defs></svg>