<svg width="56" height="32" fill="none" xmlns="http://www.w3.org/2000/svg"><path d="M28.255 21.748h5.698l2.279 3.6h2.279M25.592 10.957l.82 3.51m0 0 1.64 7.018m-1.64-7.019 5.553-1.254m-7.172-5.081c-1.619 0-2.93-1.29-2.93-2.88 0-1.591 1.311-2.88 2.93-2.88 1.618 0 2.93 1.289 2.93 2.88 0 1.59-1.312 2.88-2.93 2.88Z" stroke="#352D27" stroke-width="2.5" stroke-linecap="round" stroke-linejoin="round"/><path d="M32.477 26.812a8.092 8.092 0 0 1-6.42 3.132c-4.45 0-8.057-3.546-8.057-7.921 0-3.455 2.25-6.393 5.387-7.476" stroke="#352D27" stroke-width="2.5" stroke-linecap="round" stroke-linejoin="round"/></svg>