<svg width="31" height="32" fill="none" xmlns="http://www.w3.org/2000/svg"><path d="M30.185 5.186 15.877.066a1.115 1.115 0 0 0-.754 0L.838 5.177H.837l-.022.009-.012.005a1.118 1.118 0 0 0-.15.069l-.017.009a1.22 1.22 0 0 0-.139.093l-.029.023a1.26 1.26 0 0 0-.122.113 1.29 1.29 0 0 0-.109.137l-.018.027a1.25 1.25 0 0 0-.085.15l-.01.023a1.244 1.244 0 0 0-.061.157l-.005.014c-.017.057-.03.115-.04.174l-.005.037A1.38 1.38 0 0 0 0 6.4v12.8c0 .707.534 1.28 1.192 1.28.659 0 1.193-.573 1.193-1.28V8.176l5.005 1.79c-2.762 4.79-1.402 11.074 3.045 14.064-2.844 1.155-5.271 3.253-6.928 5.99-.36.592-.205 1.385.346 1.771.551.387 1.29.22 1.65-.371l.002-.002c3.593-5.927 10.981-7.604 16.501-3.746a12.402 12.402 0 0 1 3.49 3.746c.359.592 1.098.76 1.649.373.551-.386.707-1.18.348-1.771-1.657-2.737-4.084-4.835-6.928-5.99 4.446-2.99 5.807-9.275 3.044-14.063l6.575-2.353c.625-.224.963-.949.754-1.62a1.24 1.24 0 0 0-.754-.809ZM22.654 15.36c0 4.241-3.201 7.681-7.152 7.682-3.95.001-7.155-3.437-7.156-7.678 0-1.64.488-3.236 1.393-4.556l5.384 1.927c.244.088.51.088.754 0l5.383-1.927a8.036 8.036 0 0 1 1.393 4.553v-.001Zm-1.386-7.253-.01.003-5.758 2.06-5.76-2.06-.009-.003L4.962 6.4 15.5 2.63 26.038 6.4l-4.77 1.707Z" fill="#352D27"/></svg>