<svg width="56" height="36" fill="none" xmlns="http://www.w3.org/2000/svg"><g clip-path="url(#Frame 149__a)"><path d="M27.5 18.95c3.314 0 6-2.597 6-5.8s-2.686-5.8-6-5.8-6 2.597-6 5.8 2.686 5.8 6 5.8Zm0 0c-4.97 0-9 3.895-9 8.7V32m9-13.05c4.97 0 9 3.895 9 8.7V32M29 7.35C29.606 4.937 32.023 3 35 3c3.258 0 5.97 2.597 6 5.8-.03 3.203-2.742 5.8-6 5.8m0 0h-1.5m1.5 0c4.931 0 9 3.895 9 8.7v2.9M26 7.35C25.394 4.937 22.977 3 20 3c-3.258 0-5.97 2.597-6 5.8.03 3.203 2.742 5.8 6 5.8m0 0h1.5m-1.5 0c-4.931 0-9 3.895-9 8.7v2.9" stroke="#352D27" stroke-width="3" stroke-linecap="round"/></g><defs><clipPath id="Frame 149__a"><path fill="#fff" d="M0 0h56v36H0z"/></clipPath></defs></svg>