<svg width="32" height="31" fill="none" xmlns="http://www.w3.org/2000/svg"><g clip-path="url(#insta__a)" fill="#fff"><path d="M15.667 2.791c4.186 0 4.681.018 6.327.091 1.53.067 2.357.32 2.907.533a4.85 4.85 0 0 1 1.8 1.156c.55.545.887 1.06 1.168 1.78.215.545.472 1.369.54 2.876.073 1.635.09 2.125.09 6.26 0 4.142-.017 4.633-.09 6.261-.068 1.514-.325 2.331-.54 2.876a4.789 4.789 0 0 1-1.168 1.78 4.83 4.83 0 0 1-1.8 1.157c-.55.212-1.383.466-2.907.533-1.652.072-2.148.09-6.327.09-4.186 0-4.682-.018-6.328-.09-1.53-.067-2.356-.321-2.907-.533a4.85 4.85 0 0 1-1.8-1.157 4.763 4.763 0 0 1-1.168-1.78c-.214-.544-.471-1.368-.539-2.876-.073-1.634-.092-2.125-.092-6.26 0-4.141.019-4.632.092-6.26.068-1.514.325-2.332.539-2.877a4.789 4.789 0 0 1 1.169-1.78 4.824 4.824 0 0 1 1.799-1.156c.55-.212 1.383-.466 2.907-.533 1.646-.073 2.142-.09 6.328-.09Zm0-2.791C11.413 0 10.88.018 9.21.09c-1.664.073-2.809.34-3.8.721-1.034.4-1.91.927-2.778 1.793A7.587 7.587 0 0 0 .82 5.346C.435 6.333.165 7.46.092 9.106.018 10.766 0 11.292 0 15.5s.018 4.735.092 6.388c.073 1.647.343 2.779.728 3.76a7.558 7.558 0 0 0 1.812 2.748 7.667 7.667 0 0 0 2.772 1.787c.997.381 2.136.648 3.8.72 1.67.073 2.203.09 6.457.09 4.253 0 4.785-.017 6.456-.09 1.665-.072 2.809-.339 3.8-.72a7.667 7.667 0 0 0 2.773-1.787 7.57 7.57 0 0 0 1.805-2.742c.386-.987.655-2.113.728-3.76.074-1.653.092-2.18.092-6.388s-.018-4.735-.092-6.388c-.073-1.647-.342-2.779-.728-3.76a7.25 7.25 0 0 0-1.793-2.754A7.667 7.667 0 0 0 25.93.817c-.998-.381-2.136-.647-3.8-.72C20.451.018 19.92 0 15.666 0Z"/><path d="M15.667 7.538c-4.443 0-8.048 3.566-8.048 7.962s3.605 7.962 8.048 7.962 8.047-3.566 8.047-7.962-3.604-7.962-8.047-7.962Zm0 13.127c-2.883 0-5.22-2.313-5.22-5.165s2.337-5.165 5.22-5.165c2.882 0 5.22 2.313 5.22 5.165s-2.338 5.165-5.22 5.165ZM25.911 7.223a1.87 1.87 0 0 1-1.879 1.86 1.87 1.87 0 0 1-1.878-1.86 1.87 1.87 0 0 1 1.878-1.859c1.035 0 1.88.836 1.88 1.86Z"/></g><defs><clipPath id="insta__a"><path fill="#fff" d="M0 0h31.333v31H0z"/></clipPath></defs></svg>