<svg width="32" height="31" fill="none" xmlns="http://www.w3.org/2000/svg"><g clip-path="url(#youtube__a)"><path d="M31.021 9.3s-.306-2.137-1.248-3.076c-1.194-1.235-2.528-1.241-3.14-1.314-4.381-.315-10.96-.315-10.96-.315h-.012s-6.58 0-10.961.315c-.612.073-1.946.079-3.14 1.314C.619 7.163.319 9.3.319 9.3S0 11.813 0 14.32v2.349c0 2.506.312 5.019.312 5.019s.306 2.137 1.242 3.076c1.194 1.235 2.76 1.192 3.458 1.326 2.51.236 10.655.308 10.655.308s6.585-.012 10.966-.32c.612-.073 1.946-.08 3.14-1.314.942-.939 1.248-3.076 1.248-3.076s.312-2.507.312-5.02V14.32c0-2.506-.312-5.02-.312-5.02ZM12.43 19.52v-8.712l8.464 4.371-8.464 4.341Z" fill="#fff"/></g><defs><clipPath id="youtube__a"><path fill="#fff" d="M0 0h31.333v31H0z"/></clipPath></defs></svg>