<svg width="247" height="92" fill="none" xmlns="http://www.w3.org/2000/svg"><g clip-path="url(#Group 28__a)" fill="#FCFCFC"><path d="M18.955 20c23.879 3.22 31.77 40.779 4.04 42.496l2.392-7.959c14.45 1.272 10.024-22.303-11.184-19.181V72H0V20h18.955Zm-7.44 5.151c-1.256 0-2.272.985-2.272 2.204 0 1.218 1.016 2.203 2.272 2.204 1.256 0 2.272-.986 2.272-2.204 0-1.217-1.016-2.204-2.272-2.204Z"/><path d="M43.045 20c-23.879 3.22-31.77 40.779-4.04 42.496l-2.392-7.959C22.163 55.81 26.59 32.234 47.797 35.356V72H62V20H43.045Zm7.44 5.151c1.256 0 2.272.985 2.272 2.204 0 1.218-1.016 2.203-2.272 2.204-1.256 0-2.272-.986-2.272-2.204 0-1.217 1.016-2.204 2.272-2.204Z"/></g><path d="M80.208 42V20.88h7.712l5.504 15.2h.16l5.376-15.2h7.36V42h-4.864l.288-15.872h-.352L95.28 42h-4.224l-5.984-15.872h-.352L85.008 42h-4.8Zm40.131.448c-1.344 0-2.539-.139-3.584-.416-1.046-.256-1.952-.64-2.72-1.152a7.237 7.237 0 0 1-1.92-1.856 8.44 8.44 0 0 1-1.12-2.432 11.966 11.966 0 0 1-.352-2.976V20.88h5.184v12.576c0 1.024.16 1.867.48 2.528a3.08 3.08 0 0 0 1.472 1.472c.661.299 1.504.448 2.528.448s1.866-.15 2.528-.448a3.085 3.085 0 0 0 1.472-1.472c.32-.661.48-1.504.48-2.528V20.88h5.152v12.736c0 2.795-.8 4.97-2.4 6.528-1.579 1.536-3.979 2.304-7.2 2.304Zm22.284 0c-1.365 0-2.602-.128-3.712-.384-1.109-.256-2.069-.64-2.88-1.152a5.987 5.987 0 0 1-1.92-2.016c-.469-.81-.746-1.75-.832-2.816l4.512-1.504c.064.896.32 1.643.768 2.24.448.597 1.046 1.045 1.792 1.344.768.277 1.622.416 2.56.416.896 0 1.643-.107 2.24-.32.619-.235 1.078-.523 1.376-.864.32-.363.48-.747.48-1.152 0-.47-.202-.853-.608-1.152-.405-.32-.96-.587-1.664-.8a26.266 26.266 0 0 0-2.464-.672 67.43 67.43 0 0 1-3.136-.832 13.13 13.13 0 0 1-2.784-1.152c-.832-.49-1.493-1.11-1.984-1.856-.469-.768-.704-1.728-.704-2.88 0-1.301.331-2.432.992-3.392.662-.96 1.632-1.707 2.912-2.24 1.28-.555 2.859-.832 4.736-.832 1.856 0 3.435.267 4.736.8 1.302.533 2.304 1.28 3.008 2.24.704.939 1.088 2.037 1.152 3.296l-4.608 1.312c0-.619-.106-1.163-.32-1.632a2.866 2.866 0 0 0-.832-1.152c-.362-.32-.81-.555-1.344-.704-.533-.17-1.141-.256-1.824-.256-.81 0-1.504.096-2.08.288-.554.192-.97.448-1.248.768-.277.299-.416.65-.416 1.056 0 .512.214.939.64 1.28.448.32 1.046.597 1.792.832.768.213 1.611.427 2.528.64.918.192 1.867.437 2.848.736.982.277 1.899.65 2.752 1.12a5.53 5.53 0 0 1 2.048 1.92c.534.79.8 1.792.8 3.008 0 1.301-.352 2.443-1.056 3.424-.682.96-1.717 1.707-3.104 2.24-1.386.533-3.104.8-5.152.8ZM155.302 42V20.88h5.184V42h-5.184Zm3.744 0v-4.16h13.024V42h-13.024Zm0-8.768v-3.744h11.392v3.744h-11.392Zm0-8.224V20.88h12.928v4.128h-12.928Zm5.792-6.336h-3.872l2.432-5.568h5.024l-3.584 5.568Zm20.157 23.776c-1.344 0-2.539-.139-3.584-.416-1.046-.256-1.952-.64-2.72-1.152a7.237 7.237 0 0 1-1.92-1.856 8.44 8.44 0 0 1-1.12-2.432 11.966 11.966 0 0 1-.352-2.976V20.88h5.184v12.576c0 1.024.16 1.867.48 2.528a3.08 3.08 0 0 0 1.472 1.472c.661.299 1.504.448 2.528.448s1.866-.15 2.528-.448a3.085 3.085 0 0 0 1.472-1.472c.32-.661.48-1.504.48-2.528V20.88h5.152v12.736c0 2.795-.8 4.97-2.4 6.528-1.579 1.536-3.979 2.304-7.2 2.304ZM198.896 42V20.88h7.712l5.504 15.2h.16l5.376-15.2h7.36V42h-4.864l.288-15.872h-.352L213.968 42h-4.224l-5.984-15.872h-.352L203.696 42h-4.8ZM80.752 72V50.88h7.744c1.173 0 2.24.107 3.2.32.981.213 1.813.544 2.496.992a4.281 4.281 0 0 1 1.568 1.696c.384.704.576 1.547.576 2.528 0 .81-.16 1.525-.48 2.144-.32.619-.832 1.12-1.536 1.504-.683.384-1.59.683-2.72.896v.352c1.963.17 3.381.704 4.256 1.6.896.896 1.344 2.07 1.344 3.52 0 1.195-.288 2.208-.864 3.04-.555.81-1.419 1.44-2.592 1.888-1.152.427-2.645.64-4.48.64h-8.512Zm2.816-2.496h5.984c1.6 0 2.784-.267 3.552-.8.79-.555 1.184-1.397 1.184-2.528 0-1.301-.544-2.272-1.632-2.912-1.067-.661-2.688-.992-4.864-.992h-4.224v7.232Zm0-9.408h3.648c2.09 0 3.648-.277 4.672-.832 1.024-.576 1.536-1.43 1.536-2.56 0-1.13-.448-1.973-1.344-2.528-.875-.555-2.208-.832-4-.832h-4.512v6.752Zm26.887 12.32c-1.536 0-2.891-.256-4.064-.768a8.115 8.115 0 0 1-2.944-2.208c-.79-.96-1.387-2.101-1.792-3.424-.406-1.344-.608-2.848-.608-4.512 0-2.432.405-4.459 1.216-6.08.81-1.643 1.93-2.88 3.36-3.712 1.429-.832 3.05-1.248 4.864-1.248 1.429 0 2.72.245 3.872.736a7.81 7.81 0 0 1 2.944 2.176c.832.96 1.472 2.133 1.92 3.52.448 1.365.672 2.923.672 4.672 0 1.643-.214 3.136-.64 4.48-.406 1.323-1.014 2.464-1.824 3.424a7.933 7.933 0 0 1-2.944 2.176c-1.152.512-2.496.768-4.032.768Zm.032-2.528c1.365 0 2.517-.32 3.456-.96.96-.661 1.685-1.6 2.176-2.816.512-1.237.768-2.73.768-4.48 0-1.813-.256-3.35-.768-4.608-.512-1.28-1.248-2.261-2.208-2.944-.96-.683-2.123-1.024-3.488-1.024-1.302 0-2.432.33-3.392.992-.96.661-1.696 1.621-2.208 2.88-.512 1.259-.768 2.805-.768 4.64 0 1.323.138 2.507.416 3.552.298 1.024.714 1.899 1.248 2.624a5.41 5.41 0 0 0 2.016 1.6c.81.363 1.728.544 2.752.544ZM124.627 72V50.88h7.36c1.067 0 2.037.085 2.912.256.896.17 1.685.427 2.368.768.704.341 1.291.757 1.76 1.248.491.49.853 1.067 1.088 1.728.256.64.384 1.355.384 2.144 0 .747-.117 1.43-.352 2.048a4.42 4.42 0 0 1-.992 1.632 5.266 5.266 0 0 1-1.664 1.152c-.661.277-1.429.47-2.304.576v.416c.768.085 1.44.288 2.016.608.576.32 1.067.79 1.472 1.408.405.597.757 1.397 1.056 2.4L141.075 72h-3.168l-1.088-4.32c-.192-.875-.523-1.579-.992-2.112a4.008 4.008 0 0 0-1.696-1.184c-.683-.256-1.483-.384-2.4-.384h-4.16v8h-2.944Zm2.944-10.4h4.16c1.899 0 3.328-.341 4.288-1.024.981-.683 1.472-1.728 1.472-3.136 0-1.408-.469-2.443-1.408-3.104-.917-.683-2.347-1.024-4.288-1.024h-4.224V61.6ZM147.008 72v-2.528h6.24c1.45 0 2.645-.33 3.584-.992.938-.683 1.632-1.621 2.08-2.816.469-1.195.704-2.581.704-4.16 0-1.387-.15-2.592-.448-3.616-.278-1.024-.715-1.856-1.312-2.496-.598-.661-1.355-1.152-2.272-1.472-.896-.341-1.963-.512-3.2-.512h-5.376V50.88h5.312c2.389 0 4.341.416 5.856 1.248a7.713 7.713 0 0 1 3.36 3.584c.725 1.557 1.088 3.413 1.088 5.568 0 1.43-.16 2.72-.48 3.872-.299 1.152-.736 2.155-1.312 3.008a8.301 8.301 0 0 1-1.985 2.144 8.99 8.99 0 0 1-2.559 1.28 10.35 10.35 0 0 1-2.944.416h-6.336Zm-1.568 0V50.88h2.944V72h-2.944Zm21.906 0V50.88h2.944V72h-2.944Zm1.504 0v-2.528h13.312V72H168.85Zm0-9.6v-2.368h11.808V62.4H168.85Zm0-9.024V50.88h13.28v2.496h-13.28ZM184.866 72l7.424-21.12h4.288L204.002 72h-3.168l-6.208-18.656h-.384L188.034 72h-3.168Zm3.52-4.736v-2.24h12.448v2.24h-12.448Zm27.132 5.152c-1.152 0-2.198-.128-3.136-.384-.939-.235-1.76-.587-2.464-1.056a7.383 7.383 0 0 1-1.792-1.76 8.095 8.095 0 0 1-1.088-2.336c-.235-.875-.352-1.845-.352-2.912V50.88h2.944v12.992c0 1.28.224 2.357.672 3.232a4.499 4.499 0 0 0 1.984 1.952c.874.448 1.952.672 3.232.672 1.322 0 2.41-.213 3.264-.64a4.295 4.295 0 0 0 1.952-1.984c.448-.875.672-1.952.672-3.232V50.88h2.912v13.088c0 2.688-.747 4.768-2.24 6.24-1.494 1.472-3.68 2.208-6.56 2.208Zm12.54-.416 7.008-10.56-7.073-10.56h3.457l5.44 8.768h.16l5.44-8.768h3.456l-7.04 10.528 7.2 10.592h-3.456l-5.632-8.864h-.128L231.482 72h-3.424Z" fill="#FCFCFC"/><defs><clipPath id="Group 28__a"><path fill="#fff" transform="translate(0 20)" d="M0 0h62v52H0z"/></clipPath></defs></svg>