<svg width="44" height="33" fill="none" xmlns="http://www.w3.org/2000/svg"><path d="M12.99 0c16.363 2.043 21.77 25.88 2.768 26.969l1.639-5.051c9.902.808 6.87-14.154-7.664-12.174V33H0V0h12.99Zm-5.1 3.269c-.86 0-1.556.625-1.556 1.398 0 .773.696 1.398 1.557 1.398.86 0 1.557-.625 1.557-1.398 0-.772-.697-1.398-1.557-1.398Z" fill="#352D27"/><path d="M30.732 0C14.257 2.043 8.814 25.88 27.945 26.969l-1.65-5.051c-9.97.807-6.916-14.155 7.717-12.174V33h9.798V0H30.732Zm6.578 3a1.499 1.499 0 1 1 0 3 1.499 1.499 0 1 1 0-3Z" fill="#C59063"/></svg>