<svg width="56" height="39" fill="none" xmlns="http://www.w3.org/2000/svg"><path d="M26.946 15.506V3C19.236 2.981 12.98 8.59 13 15.506h13.946Zm3.28 6.945c3.922-.005 7.101-2.856 7.107-6.374l4.454-3.994a.604.604 0 0 0 0-.921.786.786 0 0 0-1.027 0l-5.471 4.906H13c0 3.525 3.187 6.384 7.119 6.384h1.078l3.487 3.126-3.215 2.883a4.99 4.99 0 0 0-2.731-.799c-2.564 0-4.649 1.87-4.649 4.169 0 2.299 2.085 4.169 4.65 4.169 2.563 0 4.648-1.87 4.648-4.169a3.87 3.87 0 0 0-.89-2.45L25.71 26.5l3.215 2.883a3.867 3.867 0 0 0-.89 2.449c0 2.299 2.085 4.169 4.649 4.169 2.563 0 4.648-1.87 4.648-4.169 0-2.299-2.085-4.169-4.648-4.169-1.02 0-1.965.297-2.732.799l-3.215-2.883 3.487-3.127Zm-6.975 0h4.92l-2.46 2.206-2.46-2.206Z" stroke="#352D27" stroke-width="2.5" stroke-miterlimit="10"/></svg>