<svg width="32" height="32" fill="none" xmlns="http://www.w3.org/2000/svg"><g clip-path="url(#ticket-svgrepo-com 1__a)"><path d="m.682 16.43 7.85 12.573a3.727 3.727 0 0 0 2.297 1.654 3.643 3.643 0 0 0 2.772-.451L30.173 19.86a3.642 3.642 0 0 0 1.622-2.292 3.727 3.727 0 0 0-.477-2.791l-1.963-3.143a1.242 1.242 0 0 0-.766-.552 1.214 1.214 0 0 0-.924.15 2.428 2.428 0 0 1-1.848.301 2.485 2.485 0 0 1-1.531-1.102 2.485 2.485 0 0 1-.319-1.861 2.428 2.428 0 0 1 1.082-1.528c.275-.172.47-.447.54-.764a1.242 1.242 0 0 0-.159-.93l-1.962-3.144A3.727 3.727 0 0 0 21.171.55a3.642 3.642 0 0 0-2.772.45L1.827 11.348A3.642 3.642 0 0 0 .205 13.64a3.728 3.728 0 0 0 .477 2.79Zm12.81-9.454.578.924c.173.278.448.476.765.552a1.214 1.214 0 0 0 1.465-.915 1.243 1.243 0 0 0-.159-.93l-.577-.924 4.143-2.587c.275-.171.607-.225.924-.15.317.075.592.274.766.551l1.39 2.228a4.88 4.88 0 0 0-1.311 2.89 4.977 4.977 0 0 0 .734 3.111c.58.93 1.45 1.643 2.473 2.026a4.88 4.88 0 0 0 3.172.09l1.391 2.228c.174.278.23.613.16.93a1.214 1.214 0 0 1-.541.765l-4.143 2.586-.577-.924a1.242 1.242 0 0 0-.766-.552 1.214 1.214 0 0 0-1.465.915c-.071.318-.014.652.16.93l.576.924-10.357 6.466a1.214 1.214 0 0 1-.924.15 1.243 1.243 0 0 1-.766-.55l-7.85-12.574a1.242 1.242 0 0 1-.158-.93c.071-.317.266-.592.54-.764l10.358-6.466Zm2.806 2.189c.275-.172.607-.226.924-.15.317.074.593.273.766.55l1.231 1.973c.174.277.231.612.16.93a1.214 1.214 0 0 1-1.465.914 1.243 1.243 0 0 1-.766-.551l-1.231-1.972a1.242 1.242 0 0 1-.16-.93c.072-.318.267-.593.541-.764Zm3.079 4.93c.274-.171.607-.225.924-.15.317.075.592.273.766.551l1.23 1.972c.174.278.231.613.16.93a1.214 1.214 0 0 1-1.465.915 1.242 1.242 0 0 1-.766-.552l-1.231-1.971a1.242 1.242 0 0 1-.16-.93c.072-.319.267-.593.542-.765Z" fill="#fff"/></g><defs><clipPath id="ticket-svgrepo-com 1__a"><path fill="#fff" d="M0 0h32v32H0z"/></clipPath></defs></svg>