<svg width="72" height="54" fill="none" xmlns="http://www.w3.org/2000/svg"><path d="M21.256 0c26.776 3.343 35.625 42.348 4.53 44.13l2.682-8.264c16.203 1.321 11.241-23.162-12.541-19.92V54H0V0h21.256Zm-8.344 5.35c-1.408 0-2.547 1.023-2.547 2.288s1.139 2.288 2.547 2.288c1.409 0 2.548-1.023 2.548-2.288 0-1.263-1.14-2.288-2.548-2.288Z" fill="#FCFCFC"/><path d="M49.761 0c-26.777 3.343-35.625 42.348-4.53 44.13l-2.682-8.264c-16.203 1.322-11.241-23.162 12.541-19.92V54h15.927V0H49.761Zm8.343 5.35c1.409 0 2.548 1.022 2.548 2.288 0 1.265-1.14 2.288-2.548 2.288-1.408 0-2.547-1.023-2.547-2.288 0-1.263 1.139-2.288 2.547-2.288Z" fill="#C59063"/></svg>